<svg width="198" height="50" viewBox="0 0 198 50" fill="none" xmlns="http://www.w3.org/2000/svg">
<path d="M74.3532 37.32C72.7105 37.32 71.1852 37.032 69.7772 36.456C68.3692 35.8587 67.1319 35.0373 66.0652 33.992C65.0199 32.9253 64.2092 31.688 63.6332 30.28C63.0785 28.872 62.8012 27.3573 62.8012 25.736C62.8012 24.1147 63.0785 22.6 63.6332 21.192C64.2092 19.784 65.0199 18.5573 66.0652 17.512C67.1319 16.4667 68.3585 15.6453 69.7452 15.048C71.1532 14.4507 72.6892 14.152 74.3532 14.152C76.1452 14.152 77.7239 14.4507 79.0892 15.048C80.4545 15.624 81.6599 16.424 82.7052 17.448L79.7612 20.392C79.1425 19.7093 78.3852 19.176 77.4892 18.792C76.5932 18.408 75.5479 18.216 74.3532 18.216C73.3079 18.216 72.3479 18.3973 71.4732 18.76C70.6199 19.1013 69.8732 19.6133 69.2332 20.296C68.5932 20.9573 68.1025 21.7573 67.7612 22.696C67.4199 23.6133 67.2492 24.6267 67.2492 25.736C67.2492 26.8667 67.4199 27.8907 67.7612 28.808C68.1025 29.7253 68.5932 30.5253 69.2332 31.208C69.8732 31.8693 70.6199 32.3813 71.4732 32.744C72.3479 33.1067 73.3079 33.288 74.3532 33.288C75.6119 33.288 76.6892 33.096 77.5852 32.712C78.5025 32.328 79.2705 31.784 79.8892 31.08L82.8332 34.024C81.7879 35.0693 80.5719 35.88 79.1852 36.456C77.7985 37.032 76.1879 37.32 74.3532 37.32ZM85.4107 37V21.544H89.6347V37H85.4107ZM87.5227 19.048C86.84 19.048 86.2747 18.824 85.8267 18.376C85.3787 17.9067 85.1547 17.3307 85.1547 16.648C85.1547 15.9867 85.3787 15.4213 85.8267 14.952C86.2747 14.4827 86.84 14.248 87.5227 14.248C88.2267 14.248 88.792 14.4827 89.2187 14.952C89.6667 15.4213 89.8907 15.9867 89.8907 16.648C89.8907 17.3307 89.6667 17.9067 89.2187 18.376C88.792 18.824 88.2267 19.048 87.5227 19.048ZM98.2122 37.128L91.7482 21.544H96.2922L100.58 33.448H99.0442L103.492 21.544H108.068L101.188 37.128H98.2122ZM93.9242 43.464L98.6282 33.512L101.188 37.128L98.3722 43.464H93.9242ZM115.968 37.32C114.56 37.32 113.291 36.968 112.16 36.264C111.03 35.56 110.144 34.6 109.504 33.384C108.864 32.168 108.544 30.8027 108.544 29.288C108.544 27.752 108.864 26.376 109.504 25.16C110.144 23.944 111.03 22.984 112.16 22.28C113.291 21.576 114.56 21.224 115.968 21.224C117.078 21.224 118.07 21.448 118.944 21.896C119.819 22.344 120.512 22.9733 121.024 23.784C121.558 24.5733 121.846 25.4693 121.888 26.472V32.04C121.846 33.064 121.558 33.9707 121.024 34.76C120.512 35.5493 119.819 36.1787 118.944 36.648C118.07 37.096 117.078 37.32 115.968 37.32ZM116.736 33.448C117.91 33.448 118.859 33.064 119.584 32.296C120.31 31.5067 120.672 30.4933 120.672 29.256C120.672 28.4453 120.502 27.7307 120.16 27.112C119.84 26.472 119.382 25.9813 118.784 25.64C118.208 25.2773 117.526 25.096 116.736 25.096C115.968 25.096 115.286 25.2773 114.688 25.64C114.112 25.9813 113.654 26.472 113.312 27.112C112.992 27.7307 112.832 28.4453 112.832 29.256C112.832 30.088 112.992 30.824 113.312 31.464C113.654 32.0827 114.112 32.5733 114.688 32.936C115.286 33.2773 115.968 33.448 116.736 33.448ZM120.448 37V32.84L121.12 29.064L120.448 25.352V21.544H124.608V37H120.448ZM139.197 37.32C137.554 37.32 136.029 37.032 134.621 36.456C133.213 35.8587 131.976 35.0373 130.909 33.992C129.864 32.9253 129.053 31.688 128.477 30.28C127.922 28.872 127.645 27.3573 127.645 25.736C127.645 24.1147 127.922 22.6 128.477 21.192C129.053 19.784 129.864 18.5573 130.909 17.512C131.976 16.4667 133.202 15.6453 134.589 15.048C135.997 14.4507 137.533 14.152 139.197 14.152C140.989 14.152 142.568 14.4507 143.933 15.048C145.298 15.624 146.504 16.424 147.549 17.448L144.605 20.392C143.986 19.7093 143.229 19.176 142.333 18.792C141.437 18.408 140.392 18.216 139.197 18.216C138.152 18.216 137.192 18.3973 136.317 18.76C135.464 19.1013 134.717 19.6133 134.077 20.296C133.437 20.9573 132.946 21.7573 132.605 22.696C132.264 23.6133 132.093 24.6267 132.093 25.736C132.093 26.8667 132.264 27.8907 132.605 28.808C132.946 29.7253 133.437 30.5253 134.077 31.208C134.717 31.8693 135.464 32.3813 136.317 32.744C137.192 33.1067 138.152 33.288 139.197 33.288C140.456 33.288 141.533 33.096 142.429 32.712C143.346 32.328 144.114 31.784 144.733 31.08L147.677 34.024C146.632 35.0693 145.416 35.88 144.029 36.456C142.642 37.032 141.032 37.32 139.197 37.32ZM156.312 37.32C154.904 37.32 153.635 36.968 152.504 36.264C151.374 35.56 150.488 34.6 149.848 33.384C149.208 32.168 148.888 30.8027 148.888 29.288C148.888 27.752 149.208 26.376 149.848 25.16C150.488 23.944 151.374 22.984 152.504 22.28C153.635 21.576 154.904 21.224 156.312 21.224C157.422 21.224 158.414 21.448 159.288 21.896C160.163 22.344 160.856 22.9733 161.368 23.784C161.902 24.5733 162.19 25.4693 162.232 26.472V32.04C162.19 33.064 161.902 33.9707 161.368 34.76C160.856 35.5493 160.163 36.1787 159.288 36.648C158.414 37.096 157.422 37.32 156.312 37.32ZM157.08 33.448C158.254 33.448 159.203 33.064 159.928 32.296C160.654 31.5067 161.016 30.4933 161.016 29.256C161.016 28.4453 160.846 27.7307 160.504 27.112C160.184 26.472 159.726 25.9813 159.128 25.64C158.552 25.2773 157.87 25.096 157.08 25.096C156.312 25.096 155.63 25.2773 155.032 25.64C154.456 25.9813 153.998 26.472 153.656 27.112C153.336 27.7307 153.176 28.4453 153.176 29.256C153.176 30.088 153.336 30.824 153.656 31.464C153.998 32.0827 154.456 32.5733 155.032 32.936C155.63 33.2773 156.312 33.448 157.08 33.448ZM160.792 37V32.84L161.464 29.064L160.792 25.352V21.544H164.952V37H160.792ZM168.661 37V21.544H172.853V37H168.661ZM172.853 28.456L171.221 27.368C171.413 25.4693 171.967 23.976 172.885 22.888C173.802 21.7787 175.125 21.224 176.853 21.224C177.599 21.224 178.271 21.352 178.869 21.608C179.466 21.8427 180.01 22.2373 180.501 22.792L177.877 25.8C177.642 25.544 177.354 25.352 177.013 25.224C176.693 25.096 176.319 25.032 175.893 25.032C174.997 25.032 174.261 25.32 173.685 25.896C173.13 26.4507 172.853 27.304 172.853 28.456ZM188.928 37.32C187.306 37.32 185.866 36.9787 184.608 36.296C183.349 35.592 182.346 34.632 181.6 33.416C180.874 32.2 180.512 30.8133 180.512 29.256C180.512 27.72 180.864 26.3547 181.568 25.16C182.293 23.944 183.274 22.984 184.512 22.28C185.749 21.5547 187.125 21.192 188.64 21.192C190.133 21.192 191.445 21.5333 192.576 22.216C193.728 22.8773 194.624 23.7947 195.264 24.968C195.925 26.12 196.256 27.432 196.256 28.904C196.256 29.1813 196.234 29.4693 196.192 29.768C196.17 30.0453 196.117 30.3653 196.032 30.728L183.04 30.76V27.624L194.08 27.592L192.384 28.904C192.341 27.9867 192.17 27.2187 191.872 26.6C191.594 25.9813 191.178 25.512 190.624 25.192C190.09 24.8507 189.429 24.68 188.64 24.68C187.808 24.68 187.082 24.872 186.464 25.256C185.845 25.6187 185.365 26.1413 185.024 26.824C184.704 27.4853 184.544 28.2747 184.544 29.192C184.544 30.1307 184.714 30.952 185.056 31.656C185.418 32.3387 185.93 32.872 186.592 33.256C187.253 33.6187 188.021 33.8 188.896 33.8C189.685 33.8 190.4 33.672 191.04 33.416C191.68 33.1387 192.234 32.7333 192.704 32.2L195.168 34.664C194.421 35.5387 193.504 36.2 192.416 36.648C191.349 37.096 190.186 37.32 188.928 37.32Z" fill="#1A2547"/>
<g clip-path="url(#clip0_4560_928)">
<path d="M43.3177 10.6445C45.3608 11.706 46.8841 13.203 47.6831 15.1205C50.605 22.1366 42.7689 32.0746 30.1803 37.318C17.5916 42.5614 5.01783 41.1241 2.09499 34.108C1.29689 32.1905 1.30655 30.0552 1.99226 27.8567C0.222225 31.1984 -0.236966 34.5295 0.963252 37.4111C4.15915 45.0847 17.9121 46.6563 31.6816 40.9213C45.4512 35.1862 54.0213 24.3167 50.8254 16.643C49.6243 13.7623 46.9359 11.742 43.3177 10.6445Z" fill="#1A2547"/>
<path d="M1.72274 28.8979C1.71659 28.926 1.7122 28.9532 1.70605 28.9813C1.71747 28.9427 1.72537 28.9049 1.73766 28.8672C1.73239 28.8777 1.72888 28.8874 1.72274 28.8979Z" fill="#1A2547"/>
<path d="M44.2141 11.1758C44.2501 11.1942 44.2817 11.2153 44.3177 11.2337C44.294 11.2179 44.2712 11.2021 44.2475 11.1872C44.2352 11.1837 44.2255 11.1793 44.2141 11.1758Z" fill="#1A2547"/>
<path d="M47.0982 12.3574C48.8059 13.4593 50.0939 14.8896 50.8244 16.6429C54.0203 24.3166 45.4493 35.1861 31.6806 40.9212C17.9119 46.6563 4.15905 45.0846 0.963154 37.411C0.232663 35.6576 0.12467 33.7357 0.545229 31.747C-0.198432 34.187 -0.206334 36.5576 0.68044 38.6876C3.96589 46.5746 18.1016 48.1901 32.2531 42.2961C46.4046 36.4022 55.2144 25.2297 51.9298 17.3418C51.0431 15.2127 49.3547 13.548 47.0982 12.3574Z" fill="#37CBD1"/>
<path d="M32.6606 43.2763C28.246 45.1148 23.7472 46.2737 19.4512 46.7066V50.0017H34.3665V42.5098C33.802 42.7697 33.2409 43.0348 32.6606 43.2763Z" fill="#37CBD1"/>
<path d="M44.9341 35.8567H48.511V32.3359C47.446 33.5563 46.2502 34.7337 44.9341 35.8567Z" fill="#1A2547"/>
<path d="M22.1938 9.42966C24.7978 9.42966 26.9087 7.31876 26.9087 4.71483C26.9087 2.1109 24.7978 0 22.1938 0C19.5899 0 17.479 2.1109 17.479 4.71483C17.479 7.31876 19.5899 9.42966 22.1938 9.42966Z" fill="#1A2547"/>
<path d="M28.5451 28.5857C23.1174 25.8271 20.8249 20.3027 19.8934 16.8672C18.9434 13.3622 17.2155 10.0882 14.7475 7.42433C13.5903 6.17583 12.3198 5.12662 11.0739 4.71484C12.2627 5.26886 13.4015 6.4603 14.4042 7.83699C16.543 10.7712 17.874 14.2262 18.4061 17.818C18.5413 18.7329 18.7669 19.8058 19.0935 20.941H5.3064V35.8564H19.4509V39.148C22.8162 38.7213 26.3194 37.7775 29.7717 36.3402C31.3732 35.6729 32.8921 34.9266 34.3223 34.1233C33.1625 32.0617 31.3679 30.0204 28.5451 28.5857Z" fill="#37CBD1"/>
<path d="M34.3664 20.941V12.1567C34.3664 9.35147 36.2014 6.87728 38.8854 6.0625C38.8652 6.06426 38.8459 6.06689 38.8257 6.06865C38.5456 6.09674 37.2032 6.24688 35.4524 6.70695C26.208 9.13284 23.7409 21.2483 31.3926 26.9746C31.4567 27.0229 31.5225 27.0711 31.5884 27.1194C33.822 28.7525 35.0793 31.0019 35.7843 33.261C41.5668 29.6884 45.6056 25.1518 46.8435 20.9401H34.3664V20.941Z" fill="#1A2547"/>
</g>
<defs>
<clipPath id="clip0_4560_928">
<rect width="52.6173" height="50" fill="white"/>
</clipPath>
</defs>
</svg>
